<?xml version="1.0" encoding="UTF-8"?>
<svg width="640" height="480" viewBox="0 0 640 480" fill="none" xmlns="http://www.w3.org/2000/svg">
  <defs>
    <linearGradient id="grad1" x1="0" y1="0" x2="1" y2="1">
      <stop offset="0%" stop-color="#2563EB"/>
      <stop offset="100%" stop-color="#14B8A6"/>
    </linearGradient>
    <filter id="shadow" x="-20%" y="-20%" width="140%" height="140%">
      <feDropShadow dx="0" dy="2" stdDeviation="6" flood-color="#0F172A" flood-opacity="0.15"/>
    </filter>
  </defs>
  <rect width="640" height="480" fill="#ffffff"/>
  <g transform="translate(100,60)" filter="url(#shadow)">
    <rect x="0" y="0" width="440" height="360" rx="24" fill="#F8FAFC" stroke="#E2E8F0"/>
    <!-- Avatar circle -->
    <circle cx="120" cy="140" r="64" fill="url(#grad1)"/>
    <circle cx="120" cy="140" r="60" fill="#ffffff" opacity="0.2"/>
    <!-- Headset -->
    <path d="M78 140a42 42 0 1 1 84 0v18c0 6.6-5.4 12-12 12h-6" stroke="#0F172A" stroke-width="4" stroke-linecap="round"/>
    <rect x="70" y="148" width="24" height="36" rx="8" fill="#0F172A"/>
    <rect x="146" y="148" width="24" height="36" rx="8" fill="#0F172A"/>
    <path d="M170 172c14 0 26 10 28 24" stroke="#0F172A" stroke-width="4" stroke-linecap="round"/>
    <!-- Name plate -->
    <rect x="220" y="110" width="180" height="32" rx="10" fill="#ffffff" stroke="#E2E8F0"/>
    <text x="230" y="131" font-family="Segoe UI, Arial, sans-serif" font-size="14" font-weight="700" fill="#0F172A">Customer Care</text>
    <rect x="220" y="150" width="200" height="26" rx="8" fill="#EEF2FF"/>
    <text x="230" y="167" font-family="Segoe UI, Arial, sans-serif" font-size="12" fill="#1E293B">Online • Replies within 5–10 minutes</text>
    <!-- Accent -->
    <circle cx="380" cy="70" r="6" fill="#14B8A6"/>
    <circle cx="410" cy="90" r="4" fill="#2563EB"/>
  </g>
</svg>










