<?xml version="1.0" encoding="UTF-8"?>
<svg width="640" height="160" viewBox="0 0 640 160" fill="none" xmlns="http://www.w3.org/2000/svg">
  <defs>
    <linearGradient id="grad-primary" x1="0" y1="0" x2="1" y2="1">
      <stop offset="0%" stop-color="#2563EB"/>
      <stop offset="100%" stop-color="#14B8A6"/>
    </linearGradient>
  </defs>

  <!-- Icon -->
  <g transform="translate(16,16)">
    <path d="M64 8C44 8 32 16 32 32v20c0 20 16 32 32 40c16-8 32-20 32-40V32c0-16-12-24-32-24z" fill="url(#grad-primary)"/>
    <path d="M52 74l8 8l20-20" stroke="#FFFFFF" stroke-width="4" stroke-linecap="round" stroke-linejoin="round"/>
    <g transform="translate(106,20)" opacity="0.9">
      <circle cx="0" cy="0" r="2" fill="#FFFFFF"/>
      <path d="M0 -5 L0 5 M-5 0 L5 0" stroke="#FFFFFF" stroke-width="1.2" stroke-linecap="round"/>
    </g>
    <text x="64" y="78" text-anchor="middle" font-family="'Segoe UI', Tahoma, Geneva, Verdana, sans-serif" font-size="44" font-weight="800" fill="#FFFFFF">A</text>
  </g>

  <!-- Wordmark -->
  <text x="160" y="92" font-family="'Segoe UI', Tahoma, Geneva, Verdana, sans-serif" font-size="64" font-weight="800" fill="#0F172A">ALABASTAR</text>
  <text x="160" y="116" font-family="'Segoe UI', Tahoma, Geneva, Verdana, sans-serif" font-size="16" font-weight="500" fill="#334155">Trusted home & business services</text>
</svg>
































